<?xml version="1.0" encoding="UTF-8"?>
<svg id="VETOR" xmlns="http://www.w3.org/2000/svg" viewBox="0 0 427.22 58.47">
  <defs>
    <style>
      .cls-1 {
        fill: #f07c00;
      }

      .cls-1, .cls-2, .cls-3 {
        fill-rule: evenodd;
      }

      .cls-2 {
        fill: #fff;
      }

      .cls-3 {
        fill: #1b1918;
      }
    </style>
  </defs>
  <path class="cls-3" d="m70.1,30.16c0,1.03-.36,1.92-1.07,2.64-.72.73-1.59,1.09-2.61,1.09s-1.89-.36-2.61-1.09c-.71-.72-1.07-1.61-1.07-2.64V13.21c0-2.12-.13-3.19-.38-3.19-.2,0-.92.7-2.15,2.1l-16.86,19.43c-.66.78-1.48,1.36-2.45,1.75-.97.39-2.02.58-3.14.58s-2.17-.19-3.14-.58c-.97-.39-1.79-.97-2.45-1.75L15.29,12.13c-1.17-1.4-1.89-2.1-2.14-2.1s-.38,1.06-.38,3.19v16.95c0,1.03-.36,1.92-1.07,2.64-.71.73-1.59,1.09-2.61,1.09s-1.89-.36-2.61-1.09c-.72-.72-1.07-1.61-1.07-2.64V7.46c0-2.07.59-3.84,1.76-5.29,1.17-1.45,2.79-2.18,4.83-2.18,1.23,0,2.33.31,3.29.93.97.62,1.87,1.37,2.68,2.26l17.63,20.36c.25.26.57.53.96.82.38.29.78.43,1.19.43s.81-.14,1.19-.43c.38-.28.7-.56.96-.82L57.45,3.19h.08c.71-.99,1.59-1.76,2.6-2.33,1.02-.57,2.15-.85,3.37-.85,2.04,0,3.65.73,4.83,2.18,1.18,1.45,1.76,3.21,1.76,5.29v22.7Zm15.02,0c0,1.03-.36,1.92-1.07,2.64-.72.73-1.59,1.09-2.61,1.09s-1.89-.36-2.61-1.09c-.71-.72-1.07-1.61-1.07-2.64V3.73c0-1.04.36-1.92,1.07-2.64.72-.73,1.59-1.09,2.61-1.09s1.89.36,2.61,1.09c.72.73,1.07,1.6,1.07,2.64v26.43ZM144.99,3.73c0-1.04.36-1.92,1.07-2.64.72-.73,1.58-1.09,2.61-1.09s1.89.36,2.61,1.09c.71.73,1.07,1.6,1.07,2.64v22.62c0,2.12-.7,3.91-2.11,5.36-1.4,1.45-3.15,2.18-5.25,2.18-.71,0-1.42-.1-2.11-.31-.69-.21-1.31-.49-1.88-.85l-35.1-21.76c-.97-.57-1.78-1.02-2.42-1.36-.64-.34-1.16-.5-1.57-.5-.77,0-1.25.49-1.45,1.48-.2.98-.31,2.41-.31,4.27v15.31c0,1.03-.36,1.92-1.07,2.64-.71.73-1.58,1.09-2.61,1.09s-1.89-.36-2.61-1.09c-.72-.72-1.07-1.61-1.07-2.64V7.54c0-2.12.7-3.91,2.1-5.36,1.41-1.45,3.16-2.18,5.25-2.18.72,0,1.42.1,2.11.31.69.21,1.32.49,1.88.86l35.1,21.76c.97.57,1.77,1.02,2.41,1.36.64.34,1.17.51,1.57.51.77,0,1.25-.49,1.46-1.48.2-.99.31-2.41.31-4.27V3.73Zm61.78,22.7c1.74,0,3.17-.32,4.29-.97,1.12-.65,2.01-1.44,2.65-2.37.64-.93,1.07-1.96,1.3-3.07.23-1.11.34-2.14.34-3.07s-.12-1.96-.34-3.07c-.23-1.11-.66-2.14-1.3-3.07-.64-.93-1.52-1.72-2.65-2.37-1.12-.65-2.55-.97-4.29-.97h-43.08c-1.02,0-1.89-.36-2.61-1.09-.71-.73-1.07-1.61-1.07-2.64s.36-1.92,1.07-2.64c.72-.73,1.58-1.09,2.61-1.09h44.69c2.2,0,4.16.52,5.9,1.55,1.74,1.04,3.22,2.37,4.44,4,1.23,1.63,2.16,3.45,2.8,5.44.64,1.99.96,3.98.96,5.95s-.3,3.86-.92,5.83c-.61,1.97-1.5,3.76-2.65,5.36-1.15,1.61-2.54,2.94-4.18,4-1.64,1.06-3.5,1.64-5.6,1.75h-45.46c-1.02,0-1.89-.36-2.61-1.09-.71-.72-1.07-1.61-1.07-2.64v-13.21c0-1.04.36-1.92,1.07-2.64.72-.73,1.58-1.09,2.61-1.09s1.89.36,2.61,1.09c.71.73,1.07,1.61,1.07,2.64v9.48h39.4ZM286.56,0c1.02,0,1.89.36,2.61,1.09.71.73,1.07,1.6,1.07,2.64s-.36,1.92-1.07,2.64c-.71.73-1.58,1.09-2.61,1.09h-22.69v22.7c0,1.03-.36,1.92-1.07,2.64-.72.73-1.59,1.09-2.61,1.09s-1.89-.36-2.61-1.09c-.72-.72-1.07-1.61-1.07-2.64V7.46h-23c-.92-.1-1.71-.51-2.38-1.21-.66-.7-.99-1.54-.99-2.53,0-1.04.36-1.92,1.07-2.64.71-.73,1.58-1.09,2.6-1.09h52.74Zm11.34,3.73c0-1.04.36-1.92,1.07-2.64.71-.73,1.58-1.09,2.61-1.09h54.34c1.02,0,1.89.36,2.61,1.09.71.73,1.07,1.6,1.07,2.64s-.36,1.92-1.07,2.64c-.72.73-1.58,1.09-2.61,1.09h-54.34c-1.02,0-1.89-.36-2.61-1.09-.71-.73-1.07-1.61-1.07-2.64h0Zm9.35,30.16c-1.12,0-2.25-.25-3.37-.74-1.12-.49-2.12-1.18-2.99-2.06-.87-.88-1.58-1.94-2.15-3.19-.56-1.24-.84-2.64-.84-4.2v-6.99c0-1.4.4-2.33,1.19-2.8.79-.47,2.03-.7,3.72-.7h51.43c1.02,0,1.89.36,2.61,1.09.71.73,1.07,1.61,1.07,2.64s-.36,1.91-1.07,2.64c-.72.73-1.59,1.09-2.61,1.09h-48.98v3.81c0,.52.22.97.65,1.36.44.39,1.01.58,1.73.58h48.29c1.02,0,1.89.36,2.61,1.09.71.73,1.07,1.61,1.07,2.64s-.36,1.92-1.07,2.64c-.72.73-1.58,1.09-2.61,1.09h-48.67Zm67.3-20.67h17.71c2.66,0,5.27-.35,7.82-1.05,2.55-.7,5.04-1.62,7.47-2.76,2.43-1.14,4.75-2.44,6.97-3.89,2.23-1.45,4.36-2.93,6.4-4.43.87-.73,1.74-1.09,2.61-1.09,1.02,0,1.89.36,2.61,1.09.71.73,1.07,1.6,1.07,2.64,0,.73-.2,1.36-.61,1.9-.41.55-.89,1.02-1.46,1.44-1.33,1.04-2.61,2.01-3.83,2.91-1.23.91-2.45,1.75-3.68,2.52-1.23.78-2.49,1.53-3.79,2.25-1.3.73-2.69,1.45-4.18,2.18,1.48.73,2.87,1.45,4.18,2.18,1.3.73,2.57,1.48,3.79,2.25,1.23.78,2.45,1.62,3.68,2.53,1.23.91,2.5,1.88,3.83,2.91.56.41,1.05.89,1.46,1.44.41.54.61,1.18.61,1.91,0,1.03-.36,1.92-1.07,2.64-.72.73-1.59,1.09-2.61,1.09-.87,0-1.73-.36-2.61-1.09-2.09-1.55-4.25-3.06-6.48-4.51-2.22-1.45-4.53-2.75-6.93-3.89-2.4-1.14-4.88-2.04-7.43-2.72-2.55-.67-5.16-1.01-7.82-1.01h-17.71v9.48c0,1.03-.36,1.92-1.07,2.64-.71.73-1.56,1.09-2.53,1.09s-1.89-.36-2.61-1.09c-.71-.72-1.07-1.61-1.07-2.64V3.73c0-1.04.36-1.92,1.07-2.64.72-.73,1.56-1.09,2.53-1.09,1.02,0,1.89.36,2.61,1.09.71.73,1.07,1.6,1.07,2.64v9.48Zm0,0"/>
  <path class="cls-3" d="m265,53.56v-10.9h1.42v10.9h-1.42Zm3.76,0v-7.9h1.19v1.12c.57-.87,1.4-1.3,2.48-1.3.47,0,.9.09,1.29.26.4.17.69.4.89.67.2.28.33.61.41.99.05.25.07.68.07,1.3v4.86h-1.32v-4.81c0-.54-.05-.95-.16-1.22-.1-.27-.28-.49-.54-.64-.26-.16-.57-.24-.92-.24-.56,0-1.05.18-1.46.54-.41.36-.61,1.05-.61,2.06v4.31h-1.32Zm11.23-1.2l.19,1.18c-.37.08-.7.12-1,.12-.48,0-.85-.08-1.12-.23-.26-.15-.45-.35-.56-.61-.11-.25-.16-.78-.16-1.58v-4.54h-.97v-1.04h.97v-1.96l1.31-.8v2.76h1.33v1.04h-1.33v4.62c0,.38.03.63.07.74.05.11.12.2.23.26.11.06.25.1.45.1.15,0,.34-.02.58-.05h0Zm6.62-1.35l1.37.17c-.21.81-.61,1.44-1.19,1.88-.58.44-1.33.67-2.23.67-1.14,0-2.04-.36-2.71-1.07-.67-.71-1-1.71-1-2.99s.34-2.36,1.01-3.1c.67-.73,1.55-1.1,2.62-1.1s1.89.36,2.55,1.08c.66.72,1,1.73,1,3.04,0,.08,0,.2,0,.36h-5.81c.05.87.29,1.54.73,2,.44.46.98.69,1.63.69.49,0,.9-.13,1.24-.39.34-.25.61-.67.81-1.23h0Zm-4.33-2.17h4.35c-.06-.66-.23-1.16-.5-1.49-.42-.52-.97-.78-1.64-.78-.61,0-1.11.21-1.53.62-.41.41-.64.96-.69,1.65h0Zm7.33,4.71v-10.9h1.32v10.9h-1.32Zm3.37-9.36v-1.54h1.32v1.54h-1.32Zm0,9.36v-7.9h1.32v7.9h-1.32Zm3.09.66l1.29.19c.05.4.2.69.45.88.33.25.78.37,1.34.37.61,0,1.08-.12,1.42-.37.33-.25.56-.6.67-1.04.07-.28.1-.85.09-1.72-.58.69-1.29,1.03-2.16,1.03-1.07,0-1.9-.39-2.49-1.17-.59-.78-.88-1.72-.88-2.82,0-.75.13-1.45.4-2.09.27-.64.66-1.13,1.17-1.48.51-.35,1.11-.52,1.8-.52.92,0,1.68.38,2.28,1.13v-.95h1.22v6.83c0,1.23-.13,2.1-.37,2.61-.25.51-.64.92-1.18,1.22-.54.29-1.19.45-1.98.45-.93,0-1.68-.21-2.25-.64-.57-.42-.85-1.06-.83-1.92h0Zm1.09-4.75c0,1.04.2,1.79.61,2.27.41.48.91.71,1.53.71s1.11-.24,1.52-.71c.41-.47.62-1.22.62-2.23s-.21-1.69-.63-2.18c-.42-.49-.93-.74-1.53-.74s-1.08.24-1.5.73c-.41.48-.62,1.2-.62,2.15h0Zm12.84,1.55l1.36.17c-.22.81-.61,1.44-1.2,1.88-.58.44-1.33.67-2.23.67-1.14,0-2.04-.36-2.71-1.07-.67-.71-1-1.71-1-2.99s.34-2.36,1.01-3.1c.67-.73,1.55-1.1,2.63-1.1s1.89.36,2.55,1.08c.66.72.99,1.73.99,3.04,0,.08,0,.2,0,.36h-5.81c.05.87.29,1.54.73,2,.43.46.98.69,1.63.69.48,0,.9-.13,1.24-.39.35-.25.61-.67.82-1.23h0Zm-4.34-2.17h4.35c-.06-.66-.22-1.16-.5-1.49-.42-.52-.96-.78-1.63-.78-.61,0-1.12.21-1.53.62-.41.41-.64.96-.68,1.65h0Zm2.17-5.44l-.83,1.26h-1.51l1.59-2.08h1.41l1.65,2.08h-1.5l-.81-1.26Zm5.19,10.15v-7.9h1.19v1.12c.57-.87,1.4-1.3,2.48-1.3.47,0,.9.09,1.3.26.4.17.69.4.88.67.2.28.33.61.41.99.05.25.07.68.07,1.3v4.86h-1.32v-4.81c0-.54-.05-.95-.15-1.22-.1-.27-.29-.49-.55-.64-.26-.16-.57-.24-.92-.24-.57,0-1.05.18-1.46.54-.41.36-.61,1.05-.61,2.06v4.31h-1.32Zm13.44-2.89l1.29.17c-.14.91-.5,1.62-1.09,2.13-.58.51-1.3.77-2.15.77-1.06,0-1.92-.35-2.57-1.06-.65-.71-.97-1.72-.97-3.04,0-.86.14-1.6.42-2.24.28-.64.7-1.12,1.27-1.44.57-.32,1.19-.48,1.86-.48.84,0,1.54.22,2.08.65.54.43.89,1.05,1.04,1.85l-1.29.2c-.12-.53-.34-.93-.65-1.2-.31-.27-.69-.4-1.12-.4-.67,0-1.21.24-1.63.73-.41.48-.62,1.25-.62,2.29s.2,1.83.6,2.32c.4.48.92.72,1.57.72.51,0,.95-.16,1.29-.48.35-.32.57-.82.66-1.49h0Zm2.44-6.47v-1.54h1.32v1.54h-1.32Zm0,9.36v-7.9h1.32v7.9h-1.32Zm8.41-.97c-.49.42-.96.72-1.41.89-.45.17-.94.26-1.46.26-.86,0-1.51-.21-1.97-.64-.46-.42-.69-.97-.69-1.62,0-.39.08-.74.26-1.06.17-.32.4-.58.68-.77.28-.2.6-.34.95-.44.26-.07.65-.14,1.17-.2,1.07-.13,1.85-.28,2.36-.46,0-.18.01-.3.01-.35,0-.55-.13-.93-.38-1.15-.33-.3-.84-.46-1.5-.46-.62,0-1.08.11-1.37.33-.3.22-.52.61-.66,1.17l-1.29-.18c.12-.56.31-1.01.58-1.36.27-.34.66-.61,1.17-.8.51-.18,1.1-.28,1.77-.28s1.2.08,1.62.24c.41.16.72.36.92.6.2.24.33.54.41.91.04.23.07.64.07,1.23v1.79c0,1.25.03,2.03.09,2.36.05.33.17.65.33.95h-1.38c-.13-.27-.23-.6-.26-.97h0Zm-.11-2.99c-.48.2-1.2.37-2.16.51-.54.08-.93.17-1.15.26-.22.1-.4.24-.52.44-.12.19-.18.4-.18.63,0,.36.14.65.4.89.27.24.66.36,1.17.36s.96-.11,1.36-.34c.4-.23.69-.54.87-.93.14-.3.21-.75.21-1.34v-.49Zm12.89,1.42l1.36.17c-.22.81-.61,1.44-1.19,1.88-.58.44-1.33.67-2.23.67-1.14,0-2.04-.36-2.71-1.07-.67-.71-1-1.71-1-2.99s.34-2.36,1.01-3.1c.67-.73,1.55-1.1,2.63-1.1s1.89.36,2.55,1.08c.66.72.99,1.73.99,3.04,0,.08,0,.2,0,.36h-5.81c.05.87.29,1.54.73,2,.44.46.98.69,1.63.69.48,0,.9-.13,1.24-.39.34-.25.61-.67.81-1.23h0Zm-4.34-2.17h4.35c-.06-.66-.22-1.16-.5-1.49-.42-.52-.97-.78-1.64-.78-.61,0-1.12.21-1.53.62-.41.41-.64.96-.69,1.65h0Zm14.17,4.71v-9.62h-3.54v-1.29h8.52v1.29h-3.56v9.62h-1.42Zm9.94-2.54l1.36.17c-.22.81-.61,1.44-1.2,1.88-.58.44-1.32.67-2.23.67-1.14,0-2.04-.36-2.71-1.07-.67-.71-1-1.71-1-2.99s.34-2.36,1.01-3.1c.67-.73,1.55-1.1,2.63-1.1s1.89.36,2.55,1.08c.66.72.99,1.73.99,3.04,0,.08,0,.2,0,.36h-5.81c.05.87.29,1.54.73,2,.44.46.98.69,1.63.69.48,0,.9-.13,1.24-.39.35-.25.62-.67.82-1.23h0Zm-4.34-2.17h4.35c-.06-.66-.22-1.16-.5-1.49-.42-.52-.97-.78-1.63-.78-.61,0-1.12.21-1.53.62-.41.41-.64.96-.69,1.65h0Zm12.44,1.81l1.3.17c-.14.91-.5,1.62-1.09,2.13-.58.51-1.3.77-2.15.77-1.07,0-1.92-.35-2.57-1.06-.65-.71-.98-1.72-.98-3.04,0-.86.14-1.6.42-2.24.28-.64.7-1.12,1.27-1.44.57-.32,1.19-.48,1.86-.48.85,0,1.54.22,2.08.65.54.43.88,1.05,1.03,1.85l-1.28.2c-.12-.53-.34-.93-.65-1.2-.31-.27-.69-.4-1.13-.4-.66,0-1.2.24-1.62.73-.42.48-.62,1.25-.62,2.29s.2,1.83.61,2.32c.4.48.92.72,1.57.72.52,0,.95-.16,1.3-.48.35-.32.57-.82.66-1.49h0Zm2.43,2.89v-7.9h1.19v1.12c.57-.87,1.4-1.3,2.48-1.3.47,0,.9.09,1.29.26.4.17.69.4.88.67.2.28.33.61.41.99.05.25.07.68.07,1.3v4.86h-1.32v-4.81c0-.54-.05-.95-.15-1.22-.1-.27-.29-.49-.55-.64-.26-.16-.57-.24-.92-.24-.56,0-1.05.18-1.46.54-.41.36-.61,1.05-.61,2.06v4.31h-1.32Zm7.86-3.95c0-1.46.4-2.55,1.2-3.25.67-.58,1.48-.88,2.45-.88,1.07,0,1.95.35,2.63,1.07.68.71,1.02,1.69,1.02,2.95,0,1.02-.15,1.82-.45,2.4-.3.58-.74,1.04-1.31,1.36-.58.32-1.2.48-1.88.48-1.09,0-1.97-.35-2.64-1.06-.67-.71-1.01-1.73-1.01-3.06h0Zm1.36,0c0,1.01.22,1.77.65,2.27.44.5.99.75,1.64.75s1.2-.25,1.64-.76c.44-.5.65-1.28.65-2.32,0-.98-.22-1.72-.66-2.22-.44-.5-.98-.76-1.63-.76s-1.2.25-1.64.75c-.44.5-.65,1.26-.65,2.27h0Zm7.46,3.95v-10.9h1.32v10.9h-1.32Zm2.88-3.95c0-1.46.4-2.55,1.2-3.25.67-.58,1.49-.88,2.45-.88,1.07,0,1.95.35,2.63,1.07.68.71,1.02,1.69,1.02,2.95,0,1.02-.15,1.82-.45,2.4-.3.58-.74,1.04-1.31,1.36-.58.32-1.2.48-1.88.48-1.09,0-1.97-.35-2.64-1.06-.67-.71-1.01-1.73-1.01-3.06h0Zm1.36,0c0,1.01.22,1.77.65,2.27.44.5.98.75,1.64.75s1.2-.25,1.64-.76c.43-.5.65-1.28.65-2.32,0-.98-.22-1.72-.66-2.22-.44-.5-.98-.76-1.63-.76s-1.21.25-1.64.75c-.43.5-.65,1.26-.65,2.27h0Zm7.25,4.6l1.29.19c.05.4.2.69.45.88.33.25.78.37,1.34.37.61,0,1.08-.12,1.42-.37.33-.25.55-.6.67-1.04.07-.28.1-.85.09-1.72-.58.69-1.3,1.03-2.16,1.03-1.07,0-1.9-.39-2.49-1.17-.59-.78-.88-1.72-.88-2.82,0-.75.13-1.45.4-2.09.27-.64.66-1.13,1.17-1.48.51-.35,1.11-.52,1.8-.52.92,0,1.68.38,2.27,1.13v-.95h1.22v6.83c0,1.23-.13,2.1-.37,2.61-.25.51-.64.92-1.17,1.22-.54.29-1.19.45-1.98.45-.93,0-1.68-.21-2.25-.64-.57-.42-.85-1.06-.83-1.92h0Zm1.09-4.75c0,1.04.2,1.79.61,2.27.41.48.91.71,1.52.71s1.11-.24,1.53-.71c.41-.47.61-1.22.61-2.23s-.21-1.69-.63-2.18c-.42-.49-.94-.74-1.53-.74s-1.08.24-1.49.73c-.41.48-.62,1.2-.62,2.15h0Zm7.51-5.27v-1.54h1.32v1.54h-1.32Zm0,9.36v-7.9h1.32v7.9h-1.32Zm8.41-.97c-.49.42-.96.72-1.41.89-.45.17-.94.26-1.46.26-.86,0-1.51-.21-1.97-.64-.46-.42-.69-.97-.69-1.62,0-.39.08-.74.26-1.06.17-.32.4-.58.68-.77.28-.2.6-.34.95-.44.26-.07.65-.14,1.17-.2,1.07-.13,1.85-.28,2.36-.46,0-.18,0-.3,0-.35,0-.55-.13-.93-.38-1.15-.33-.3-.84-.46-1.5-.46-.62,0-1.08.11-1.38.33-.3.22-.51.61-.66,1.17l-1.29-.18c.12-.56.31-1.01.58-1.36.27-.34.66-.61,1.16-.8.51-.18,1.1-.28,1.77-.28s1.2.08,1.62.24c.42.16.72.36.92.6.2.24.33.54.41.91.04.23.07.64.07,1.23v1.79c0,1.25.03,2.03.09,2.36.05.33.17.65.33.95h-1.38c-.13-.27-.22-.6-.26-.97h0Zm-.11-2.99c-.48.2-1.2.37-2.16.51-.54.08-.93.17-1.15.26-.22.1-.4.24-.52.44-.12.19-.18.4-.18.63,0,.36.14.65.4.89.26.24.66.36,1.17.36s.96-.11,1.36-.34c.4-.23.69-.54.87-.93.14-.3.21-.75.21-1.34v-.49Zm0,0"/>
  <path class="cls-1" d="m18.43,46.85l234.94-.15v5.97H18.38c-1.21,3.38-4.39,5.8-8.14,5.8-4.78,0-8.66-3.93-8.66-8.78s3.88-8.78,8.66-8.78c3.8,0,7.03,2.49,8.2,5.94h0Zm0,0"/>
  <path class="cls-2" d="m10.24,45.14c2.47,0,4.48,2.03,4.48,4.54s-2.01,4.54-4.48,4.54-4.48-2.04-4.48-4.54,2.01-4.54,4.48-4.54h0Zm0,0"/>
</svg>